<svg width="22" height="21" viewBox="0 0 22 21" fill="none" xmlns="http://www.w3.org/2000/svg">
<path d="M8.00903 9.25C10.353 9.25 12.259 7.343 12.259 5C12.259 2.657 10.353 0.75 8.00903 0.75C5.66503 0.75 3.75903 2.657 3.75903 5C3.75903 7.343 5.66503 9.25 8.00903 9.25ZM8.00903 2.25C9.52603 2.25 10.759 3.483 10.759 5C10.759 6.517 9.52603 7.75 8.00903 7.75C6.49203 7.75 5.25903 6.517 5.25903 5C5.25903 3.483 6.49203 2.25 8.00903 2.25ZM15.75 16.519V19.5C15.75 19.914 15.414 20.25 15 20.25C14.586 20.25 14.25 19.914 14.25 19.5V16.519C14.25 15.518 13.943 12.25 10 12.25H6C2.057 12.25 1.75 15.517 1.75 16.519V19.5C1.75 19.914 1.414 20.25 1 20.25C0.586 20.25 0.25 19.914 0.25 19.5V16.519C0.25 13.858 1.756 10.75 6 10.75H10C14.244 10.75 15.75 13.857 15.75 16.519ZM13.155 8.71594C12.859 8.42594 12.8529 7.95103 13.1429 7.65503C13.4339 7.35903 13.909 7.35504 14.204 7.64404C14.563 7.99604 15.045 8.18994 15.559 8.18994C16.664 8.18994 17.53 7.32497 17.53 6.21997C17.53 5.13397 16.646 4.25 15.559 4.25C15.251 4.25 14.9731 4.31301 14.7321 4.43701C14.3651 4.62801 13.912 4.48104 13.722 4.11304C13.532 3.74504 13.678 3.29303 14.046 3.10303C14.502 2.86903 15.011 2.75 15.559 2.75C17.473 2.75 19.03 4.30697 19.03 6.21997C19.03 8.13297 17.473 9.68994 15.559 9.68994C14.65 9.68994 13.797 9.34394 13.155 8.71594ZM21.75 15.1801V17.5C21.75 17.914 21.414 18.25 21 18.25C20.586 18.25 20.25 17.914 20.25 17.5V15.1801C20.25 14.4411 20.023 12.03 17.11 12.03H15.599C15.185 12.03 14.849 11.694 14.849 11.28C14.849 10.866 15.185 10.53 15.599 10.53H17.11C20.535 10.53 21.75 13.0351 21.75 15.1801Z" fill="white"/>
</svg>
