<svg width="24" height="24" viewBox="0 0 24 24" fill="none" xmlns="http://www.w3.org/2000/svg">
<path d="M19.75 6.49994V17.4999C19.75 18.7409 18.741 19.7499 17.5 19.7499H16C15.586 19.7499 15.25 19.4139 15.25 18.9999C15.25 18.5859 15.586 18.2499 16 18.2499H17.5C17.914 18.2499 18.25 17.9139 18.25 17.4999V6.49994C18.25 6.08594 17.914 5.74994 17.5 5.74994H16C15.586 5.74994 15.25 5.41394 15.25 4.99994C15.25 4.58594 15.586 4.24994 16 4.24994H17.5C18.741 4.24994 19.75 5.25894 19.75 6.49994ZM13.908 2.74494C14.443 3.17394 14.75 3.81394 14.75 4.49994V19.4999C14.75 20.1859 14.443 20.8259 13.908 21.2549C13.504 21.5789 13.011 21.7499 12.505 21.7499C12.341 21.7499 12.176 21.732 12.013 21.696L6.013 20.3629C4.975 20.1319 4.25098 19.2289 4.25098 18.1659V5.83396C4.25098 4.77096 4.976 3.86794 6.013 3.63694L12.013 2.30393C12.684 2.15493 13.373 2.31694 13.908 2.74494ZM13.25 4.49994C13.25 4.27094 13.147 4.05795 12.969 3.91495C12.834 3.80695 12.67 3.74994 12.501 3.74994C12.446 3.74994 12.392 3.75595 12.337 3.76795L6.33698 5.10096C5.99098 5.17796 5.75 5.47895 5.75 5.83295V18.165C5.75 18.519 5.99198 18.8199 6.33698 18.8969L12.337 20.23C12.561 20.28 12.791 20.226 12.969 20.083C13.147 19.94 13.25 19.7269 13.25 19.4979V4.49994ZM10.52 10.9999H10.51C9.95801 10.9999 9.51501 11.4479 9.51501 11.9999C9.51501 12.5519 9.96802 12.9999 10.52 12.9999C11.072 12.9999 11.52 12.5519 11.52 11.9999C11.52 11.4479 11.072 10.9999 10.52 10.9999Z" fill="white"/>
</svg>
