<svg width="24" height="25" viewBox="0 0 24 25" fill="none" xmlns="http://www.w3.org/2000/svg">
<path d="M10.75 13.5C10.75 13.914 10.414 14.25 10 14.25H8.75V15.5C8.75 15.914 8.414 16.25 8 16.25C7.586 16.25 7.25 15.914 7.25 15.5V14.25H6C5.586 14.25 5.25 13.914 5.25 13.5C5.25 13.086 5.586 12.75 6 12.75H7.25V11.5C7.25 11.086 7.586 10.75 8 10.75C8.414 10.75 8.75 11.086 8.75 11.5V12.75H10C10.414 12.75 10.75 13.086 10.75 13.5ZM21.75 13.5V17.5C21.75 19.86 20.462 22.25 18 22.25H17.741C16.399 22.25 15.1539 21.584 14.4099 20.468C14.3749 20.415 13.575 19.25 12 19.25C10.396 19.25 9.60102 20.4409 9.59302 20.4529C8.84702 21.5799 7.59993 22.25 6.25293 22.25H6C3.538 22.25 2.25 19.86 2.25 17.5V13.5C2.25 9.273 4.399 6.75 8 6.75H11.25V6.5C11.25 5.259 12.26 4.25 13.5 4.25H14.5C14.913 4.25 15.25 3.914 15.25 3.5C15.25 3.086 15.586 2.75 16 2.75C16.414 2.75 16.75 3.086 16.75 3.5C16.75 4.741 15.74 5.75 14.5 5.75H13.5C13.087 5.75 12.75 6.086 12.75 6.5V6.75H16C19.601 6.75 21.75 9.273 21.75 13.5ZM20.25 13.5C20.25 10.114 18.74 8.25 16 8.25H8C5.26 8.25 3.75 10.114 3.75 13.5V17.5C3.75 19.065 4.454 20.75 6 20.75H6.25293C7.09493 20.75 7.87509 20.3309 8.34009 19.6289C8.38709 19.5559 9.593 17.75 12 17.75C14.408 17.75 15.6131 19.566 15.6631 19.644C16.1241 20.333 16.902 20.75 17.741 20.75H18C19.546 20.75 20.25 19.065 20.25 17.5V13.5ZM14.75 13.75C14.198 13.75 13.75 14.198 13.75 14.75C13.75 15.302 14.198 15.75 14.75 15.75C15.302 15.75 15.75 15.302 15.75 14.75C15.75 14.198 15.302 13.75 14.75 13.75ZM17.25 11.251C16.698 11.251 16.25 11.699 16.25 12.251C16.25 12.803 16.698 13.251 17.25 13.251C17.802 13.251 18.25 12.803 18.25 12.251C18.25 11.699 17.802 11.251 17.25 11.251Z" fill="white"/>
</svg>
